<svg aria-hidden="true" style="width:0;height:0;position:absolute;overflow:hidden" xmlns="http://www.w3.org/2000/svg"><defs><symbol id="icon-logo" viewBox="0 0 32 32"><path d="M16.919 13.127h-.02a.653.653 0 0 1 .002-1.307h.02a.653.653 0 0 1-.002 1.306zM18.952 12.63a.652.652 0 0 1-.299-1.234 3.842 3.842 0 0 0 2.094-3.429.653.653 0 1 1 1.306 0 5.143 5.143 0 0 1-2.803 4.591.65.65 0 0 1-.298.072z"/><path d="M28.277 11.43a4.502 4.502 0 0 0-3.47-4.385C24.348 3.085 20.974 0 16.893 0c-1.82 0-3.599.63-5.011 1.773a8.01 8.01 0 0 0-2.608 3.859 5.164 5.164 0 0 0-5.552 5.144c0 1.325.502 2.534 1.326 3.448l10.39 17.457a.653.653 0 0 0 1.122 0l9.905-16.642a4.502 4.502 0 0 0 1.811-3.609zm-1.306 0c0 1.764-1.436 3.2-3.2 3.2h-2.514a7.97 7.97 0 0 0 3.591-6.215 3.2 3.2 0 0 1 2.123 3.014zm-21.942-.655a3.857 3.857 0 0 1 4.603-3.779.652.652 0 0 0 .763-.497c.677-3.009 3.41-5.192 6.499-5.192 3.673 0 6.661 2.988 6.661 6.661s-2.988 6.661-6.661 6.661H8.882a3.858 3.858 0 0 1-3.853-3.853zm4.19 7.903h3.196l-2.003 2.003-1.192-2.003zm1.882 3.161.53-.53 1.262 1.262-.851.851-.942-1.582zm4.907-.536 1.267 1.267-1.267 1.268-1.267-1.267 1.267-1.267zm-.778-2.625h1.557l-.779.779-.779-.779zm1.702 1.702 1.262-1.262 1.267 1.267-1.262 1.262-1.267-1.267zm-3.115 1.267-1.262-1.262 1.268-1.267 1.262 1.262-1.268 1.267zm-1.085 2.932 1.085-1.085 1.267 1.268-1.407 1.407-.946-1.589zM16 30.07l-1.633-2.743 1.641-1.641 1.631 1.631L16 30.071zm2.328-3.912-1.396-1.396 1.267-1.267 1.075 1.075-.946 1.589zm1.635-2.747-.84-.84 1.262-1.262.52.52-.942 1.582zm1.631-2.74-1.993-1.993h3.18l-1.186 1.993zm1.964-3.3H8.442l-.973-1.635c.45.128.923.198 1.413.198l14.889.002a4.5 4.5 0 0 0 .671-.05l-.884 1.485z"/></symbol></defs></svg>