<svg aria-hidden="true" style="width:0;height:0;position:absolute;overflow:hidden" xmlns="http://www.w3.org/2000/svg"><defs><symbol id="icon-logo-header" viewBox="0 0 32 32"><path d="M12.16.576C4.8 2.816.384 8.64.384 16c0 6.016 3.072 11.264 8.128 13.888 2.624 1.344 3.008.384.576-1.472C7.36 27.008 7.04 26.368 7.04 24c0-1.664-.384-3.008-.96-3.52-1.152-.96-1.28-3.456-.128-4.352.448-.384.896-1.664.96-2.816.32-4.224 4.864-8.192 9.408-8.192s9.088 3.968 9.408 8.192c.064 1.152.512 2.432.96 2.816 1.152.896 1.024 3.392-.128 4.352-.576.512-.96 1.856-.96 3.52 0 2.368-.32 3.008-2.048 4.416-2.688 2.112-1.92 2.88 1.088 1.024C28.864 26.816 32 21.12 32 16.064 32 5.952 21.504-2.24 12.16.576z"/><path d="M12.992 8c-1.152.512-2.112 1.152-2.112 1.536 0 .704 3.456 1.984 5.44 1.984s5.44-1.28 5.44-1.984c0-.768-3.968-2.496-5.568-2.496-.64.064-2.112.448-3.2.96zM9.344 11.968c-.192.256-.384 1.088-.384 1.92 0 1.472.064 1.472 7.36 1.472s7.36 0 7.36-1.472c0-2.176-.576-2.432-2.624-1.408-2.304 1.216-7.168 1.216-9.472 0-1.024-.512-1.984-.704-2.24-.512zM7.488 17.664c-1.024 1.088.704 1.536 5.696 1.536h5.376v2.24c0 1.216.32 2.24.64 2.24.384 0 .64-.96.64-2.176 0-2.112.128-2.24 2.56-2.432 1.408-.128 2.56-.512 2.56-.832 0-.704-16.768-1.28-17.472-.576z"/><path d="M8.96 23.296c0 3.52 1.216 4.224 7.36 4.224s7.36-.704 7.36-4.224c0-1.536-.32-2.176-.96-2.176-.576 0-.96.576-.96 1.536 0 3.584-4.864 3.904-5.568.384-.32-1.856-.512-1.92-3.776-1.92H8.96v2.176zM12.928 30.528c.384 2.048 6.912 1.856 6.912-.128 0-.704-.832-.96-3.584-.96-3.008 0-3.52.192-3.328 1.088z"/></symbol><symbol id="icon-paws" viewBox="0 0 43 32"><path d="M32.014 0c1.929 0 3.75.52 5.464 1.561s3.107 2.537 4.179 4.488C42.686 8 43.2 10.298 43.2 12.943s-.643 5.225-1.929 7.74c-.429.911-1.2 2.081-2.314 3.512a63.368 63.368 0 0 1-3.214 3.707L31.693 32 28.8 27.187a22.03 22.03 0 0 0 5.336-4.683c1.543-1.821 2.314-3.491 2.314-5.008 0-.78-.171-1.409-.514-1.886a8.359 8.359 0 0 1-5.014 1.626c-1.329 0-2.593-.412-3.793-1.236a8.555 8.555 0 0 1-2.957-3.122c-.771-1.258-1.157-2.558-1.157-3.902 0-1.518.45-2.97 1.35-4.358a10.222 10.222 0 0 1 3.407-3.382C29.143.412 30.558 0 32.015 0zM8.936 0c1.929 0 3.75.52 5.464 1.561s3.107 2.537 4.179 4.488c1.029 1.951 1.543 4.249 1.543 6.894 0 1.864-.236 3.534-.707 5.008-.471 1.518-1.286 3.1-2.443 4.748-1.114 1.561-2.164 2.862-3.15 3.902-.986 1.084-2.7 2.884-5.143 5.398l-2.893-4.813a22.03 22.03 0 0 0 5.336-4.683c1.543-1.821 2.314-3.491 2.314-5.008 0-.78-.171-1.409-.514-1.886a8.359 8.359 0 0 1-5.014 1.626c-1.329 0-2.593-.412-3.793-1.236a8.555 8.555 0 0 1-2.957-3.122C.387 11.619.001 10.319.001 8.975c0-1.518.429-2.97 1.286-4.358S3.28 2.102 4.694 1.235C6.065.411 7.48-.001 8.937-.001z"/></symbol><symbol id="icon-facebook" viewBox="0 0 16 32"><path d="M14.266 15.97H10.09v15.39H3.763V15.97H.754v-5.409h3.009v-3.5c0-2.503 1.182-6.422 6.384-6.422l4.687.02v5.25h-3.401c-.558 0-1.342.28-1.342 1.474v3.183h4.729l-.553 5.403z"/></symbol><symbol id="icon-telegram" viewBox="0 0 32 32"><path d="m12.964 19.8-.508 6.671c.727 0 1.042-.292 1.42-.641l3.409-3.04 7.063 4.828c1.295.674 2.208.319 2.557-1.112l4.638-20.277c.411-1.787-.692-2.486-1.955-2.048L2.336 13.919c-1.86.674-1.832 1.641-.316 2.08l6.967 2.023L25.17 8.571c.762-.471 1.454-.21.884.26L12.963 19.802z"/></symbol><symbol id="icon-github" viewBox="0 0 32 32"><path d="M16 .941C7.729.941.941 7.729.941 16c0 7.058 4.953 13.47 11.529 15.059v-4.982c-.652.143-1.251.147-1.915-.049-.89-.263-1.613-.856-2.15-1.76-.342-.577-.949-1.203-1.581-1.157l-.155-1.758c1.368-.117 2.551.833 3.254 2.013.312.525.671.832 1.132.969.446.131.924.068 1.481-.129.14-1.116.651-1.534 1.037-2.122v-.001c-3.922-.585-5.486-2.666-6.106-4.308-.822-2.181-.381-4.905 1.073-6.627.028-.034.079-.121.06-.183-.667-2.014.146-3.679.176-3.856.769.228.894-.229 3.342 1.258l.423.254c.177.105.121.045.298.032a12.77 12.77 0 0 1 3.16-.445 12.84 12.84 0 0 1 3.204.456l.137.014c-.012-.002.037-.009.12-.058 3.057-1.852 2.947-1.247 3.767-1.513.03.177.831 1.87.172 3.858-.089.274 2.65 2.782 1.132 6.809-.62 1.643-2.184 3.724-6.106 4.309v.001c.503.766 1.107 1.174 1.104 2.755v6.219c6.577-1.589 11.529-8.001 11.529-15.059C31.058 7.728 24.271.94 15.999.94z"/></symbol><symbol id="icon-home" viewBox="0 0 35 32"><path d="M32.64 15.401a1.541 1.541 0 0 0-.129-2.225L17.739.426c-.671-.578-1.745-.566-2.402.027L.515 13.856a1.532 1.532 0 0 0-.071 2.222l.372.382c.617.633 1.613.708 2.224.168l1.108-.979v14.326c0 .879.722 1.591 1.612 1.591h5.778c.89 0 1.612-.712 1.612-1.591V19.952h7.37v10.023c-.013.878.624 1.59 1.515 1.59h6.123c.89 0 1.613-.711 1.613-1.59V15.851l.683.592c.377.328 1.168.065 1.767-.586l.42-.455z"/></symbol><symbol id="icon-arrow-right" viewBox="0 0 32 32"><path d="m19.414 27.414 10-10a2 2 0 0 0 0-2.828l-10-10a2 2 0 1 0-2.828 2.828L23.172 14H4a2 2 0 1 0 0 4h19.172l-6.586 6.586c-.39.39-.586.902-.586 1.414s.195 1.024.586 1.414a2 2 0 0 0 2.828 0z"/></symbol><symbol id="icon-menu-close" viewBox="0 0 32 32"><path d="m2.519 2 26.963 28M2 29.481 30 2.518"/></symbol><symbol id="icon-menu" viewBox="0 0 46 32"><path d="M0 2.286h45.714M0 16h45.714M0 29.714h45.714"/></symbol><symbol id="icon-point" viewBox="0 0 139 32"><path d="M85.333 16c0 8.837-7.163 16-16 16s-16-7.163-16-16 7.163-16 16-16 16 7.163 16 16zM32 16c0 8.837-7.163 16-16 16S0 24.837 0 16 7.163 0 16 0s16 7.163 16 16zM138.667 16c0 8.837-7.163 16-16 16s-16-7.163-16-16 7.163-16 16-16 16 7.163 16 16z"/></symbol><symbol id="icon-close" viewBox="0 0 32 32"><path d="m26.667 7.303-1.97-1.97-7.808 7.808-7.808-7.808-1.97 1.97 7.808 7.808-7.808 7.808 1.97 1.97 7.808-7.808 7.808 7.808 1.97-1.97-7.808-7.808 7.808-7.808z"/></symbol></defs></svg>