<svg aria-hidden="true" style="position: absolute; width: 0; height: 0; overflow: hidden;" version="1.1" xmlns="http://www.w3.org/2000/svg" xmlns:xlink="http://www.w3.org/1999/xlink">
<defs>
<symbol id="icon-burger-menu" viewBox="0 0 32 32">
<path d="M30.222 8.889h-28.444c-0.982 0-1.778-0.796-1.778-1.778s0.796-1.778 1.778-1.778v0h28.444c0.982 0 1.778 0.796 1.778 1.778s-0.796 1.778-1.778 1.778v0zM30.222 17.778h-28.444c-0.982 0-1.778-0.796-1.778-1.778s0.796-1.778 1.778-1.778v0h28.444c0.982 0 1.778 0.796 1.778 1.778s-0.796 1.778-1.778 1.778v0zM30.222 26.667h-28.444c-0.982 0-1.778-0.796-1.778-1.778s0.796-1.778 1.778-1.778v0h28.444c0.982 0 1.778 0.796 1.778 1.778s-0.796 1.778-1.778 1.778v0z"></path>
</symbol>
</defs>
</svg>
