<svg aria-hidden="true" style="position: absolute; width: 0; height: 0; overflow: hidden;" version="1.1" xmlns="http://www.w3.org/2000/svg" xmlns:xlink="http://www.w3.org/1999/xlink">
<defs>
<symbol id="icon-logo" viewBox="0 0 32 32">
<path d="M16.919 13.127c-0.001 0-0.002 0-0.003 0h-0.017c-0.361-0.001-0.652-0.295-0.651-0.656s0.294-0.651 0.653-0.651c0.001 0 0.002 0 0.003 0l0.017 0c0.361 0.001 0.652 0.295 0.651 0.656s-0.294 0.65-0.653 0.65z"></path>
<path d="M18.952 12.63c-0.237 0-0.465-0.129-0.581-0.355-0.165-0.321-0.039-0.714 0.282-0.879 1.291-0.664 2.094-1.978 2.094-3.429 0-0.361 0.292-0.653 0.653-0.653s0.653 0.292 0.653 0.653c0 1.943-1.074 3.702-2.803 4.591-0.095 0.049-0.198 0.072-0.298 0.072z"></path>
<path d="M28.277 11.43c0-2.113-1.459-3.914-3.47-4.385-0.459-3.96-3.833-7.045-7.914-7.045-1.82 0-3.599 0.63-5.011 1.773-1.234 0.999-2.145 2.353-2.608 3.859-0.131-0.010-0.262-0.015-0.393-0.015-2.845 0-5.159 2.314-5.159 5.159 0 1.325 0.502 2.534 1.326 3.448l10.39 17.457c0.118 0.198 0.331 0.319 0.561 0.319s0.443-0.121 0.561-0.319l9.905-16.642c1.099-0.823 1.811-2.134 1.811-3.609zM26.971 11.43c0 1.764-1.436 3.2-3.2 3.2h-2.514c2.052-1.348 3.446-3.617 3.591-6.215 1.248 0.444 2.123 1.636 2.123 3.014zM5.029 10.775c0-2.125 1.728-3.853 3.853-3.853 0.25 0 0.502 0.025 0.75 0.074 0.347 0.069 0.686-0.152 0.763-0.497 0.677-3.009 3.41-5.192 6.499-5.192 3.673 0 6.661 2.988 6.661 6.661s-2.988 6.661-6.661 6.661h-8.012c-2.124-0-3.853-1.729-3.853-3.853zM9.219 18.678h3.196l-2.003 2.003-1.192-2.003zM11.101 21.839l0.53-0.53 1.262 1.262-0.851 0.851-0.942-1.582zM16.008 21.303l1.267 1.267-1.267 1.268-1.267-1.267 1.267-1.267zM15.23 18.678h1.557l-0.779 0.779-0.779-0.779zM16.932 20.38l1.262-1.262 1.267 1.267-1.262 1.262-1.267-1.267zM13.817 21.647l-1.262-1.262 1.268-1.267 1.262 1.262-1.268 1.267zM12.732 24.579l1.085-1.085 1.267 1.268-1.407 1.407-0.946-1.589zM16 30.070l-1.633-2.743 1.641-1.641 1.631 1.631-1.639 2.754zM18.328 26.158l-1.396-1.396 1.267-1.267 1.075 1.075-0.946 1.589zM19.963 23.411l-0.84-0.84 1.262-1.262 0.52 0.52-0.942 1.582zM21.594 20.671l-1.993-1.993h3.18l-1.186 1.993zM23.558 17.371h-15.116l-0.973-1.635c0.45 0.128 0.923 0.198 1.413 0.198l14.889 0.002c0.228 0 0.452-0.017 0.671-0.050l-0.884 1.485z"></path>
</symbol>
</defs>
</svg>
