<svg aria-hidden="true" style="position: absolute; width: 0; height: 0; overflow: hidden;" version="1.1" xmlns="http://www.w3.org/2000/svg" xmlns:xlink="http://www.w3.org/1999/xlink">
    <defs>
        <symbol id="icon-logo-header" viewBox="0 0 32 32">
            <path d="M12.16 0.576c-7.36 2.24-11.776 8.064-11.776 15.424 0 6.016 3.072 11.264 8.128 13.888 2.624 1.344 3.008 0.384 0.576-1.472-1.728-1.408-2.048-2.048-2.048-4.416 0-1.664-0.384-3.008-0.96-3.52-1.152-0.96-1.28-3.456-0.128-4.352 0.448-0.384 0.896-1.664 0.96-2.816 0.32-4.224 4.864-8.192 9.408-8.192s9.088 3.968 9.408 8.192c0.064 1.152 0.512 2.432 0.96 2.816 1.152 0.896 1.024 3.392-0.128 4.352-0.576 0.512-0.96 1.856-0.96 3.52 0 2.368-0.32 3.008-2.048 4.416-2.688 2.112-1.92 2.88 1.088 1.024 4.224-2.624 7.36-8.32 7.36-13.376 0-10.112-10.496-18.304-19.84-15.488z"></path>
            <path d="M12.992 8c-1.152 0.512-2.112 1.152-2.112 1.536 0 0.704 3.456 1.984 5.44 1.984s5.44-1.28 5.44-1.984c0-0.768-3.968-2.496-5.568-2.496-0.64 0.064-2.112 0.448-3.2 0.96z"></path>
            <path d="M9.344 11.968c-0.192 0.256-0.384 1.088-0.384 1.92 0 1.472 0.064 1.472 7.36 1.472s7.36 0 7.36-1.472c0-2.176-0.576-2.432-2.624-1.408-2.304 1.216-7.168 1.216-9.472 0-1.024-0.512-1.984-0.704-2.24-0.512z"></path>
            <path d="M7.488 17.664c-1.024 1.088 0.704 1.536 5.696 1.536h5.376v2.24c0 1.216 0.32 2.24 0.64 2.24 0.384 0 0.64-0.96 0.64-2.176 0-2.112 0.128-2.24 2.56-2.432 1.408-0.128 2.56-0.512 2.56-0.832 0-0.704-16.768-1.28-17.472-0.576z"></path>
            <path d="M8.96 23.296c0 3.52 1.216 4.224 7.36 4.224s7.36-0.704 7.36-4.224c0-1.536-0.32-2.176-0.96-2.176-0.576 0-0.96 0.576-0.96 1.536 0 3.584-4.864 3.904-5.568 0.384-0.32-1.856-0.512-1.92-3.776-1.92h-3.456v2.176z"></path>
            <path d="M12.928 30.528c0.384 2.048 6.912 1.856 6.912-0.128 0-0.704-0.832-0.96-3.584-0.96-3.008 0-3.52 0.192-3.328 1.088z"></path>
        </symbol>
        <symbol id="icon-paws" viewBox="0 0 43 32">
            <path  d="M32.014 0c1.929 0 3.75 0.52 5.464 1.561s3.107 2.537 4.179 4.488c1.029 1.951 1.543 4.249 1.543 6.894s-0.643 5.225-1.929 7.74c-0.429 0.911-1.2 2.081-2.314 3.512-1.157 1.431-2.229 2.667-3.214 3.707l-4.050 4.098-2.893-4.813c2.014-1.257 3.793-2.818 5.336-4.683 1.543-1.821 2.314-3.491 2.314-5.008 0-0.78-0.171-1.409-0.514-1.886-1.5 1.084-3.171 1.626-5.014 1.626-1.329 0-2.593-0.412-3.793-1.236-1.243-0.78-2.229-1.821-2.957-3.122-0.771-1.258-1.157-2.558-1.157-3.902 0-1.518 0.45-2.97 1.35-4.358 0.857-1.388 1.993-2.515 3.407-3.382 1.371-0.824 2.786-1.236 4.243-1.236zM8.936 0c1.929 0 3.75 0.52 5.464 1.561s3.107 2.537 4.179 4.488c1.029 1.951 1.543 4.249 1.543 6.894 0 1.864-0.236 3.534-0.707 5.008-0.471 1.518-1.286 3.1-2.443 4.748-1.114 1.561-2.164 2.862-3.15 3.902-0.986 1.084-2.7 2.884-5.143 5.398l-2.893-4.813c2.014-1.257 3.793-2.818 5.336-4.683 1.543-1.821 2.314-3.491 2.314-5.008 0-0.78-0.171-1.409-0.514-1.886-1.5 1.084-3.171 1.626-5.014 1.626-1.329 0-2.593-0.412-3.793-1.236-1.243-0.78-2.229-1.821-2.957-3.122-0.771-1.258-1.157-2.558-1.157-3.902 0-1.518 0.429-2.97 1.286-4.358s1.993-2.515 3.407-3.382c1.371-0.824 2.786-1.236 4.243-1.236z"></path>
        </symbol>
        <symbol id="icon-facebook" viewBox="0 0 16 32">
            <path d="M14.266 15.97h-4.176v15.39h-6.327v-15.39h-3.009v-5.409h3.009v-3.5c0-2.503 1.182-6.422 6.384-6.422l4.687 0.020v5.25h-3.401c-0.558 0-1.342 0.28-1.342 1.474v3.183h4.729l-0.553 5.403z"></path>
        </symbol>
        <symbol id="icon-telegram" viewBox="0 0 32 32">
            <path d="M12.964 19.8l-0.508 6.671c0.727 0 1.042-0.292 1.42-0.641l3.409-3.040 7.063 4.828c1.295 0.674 2.208 0.319 2.557-1.112l4.638-20.277c0.411-1.787-0.692-2.486-1.955-2.048l-27.252 9.738c-1.86 0.674-1.832 1.641-0.316 2.080l6.967 2.023 16.183-9.451c0.762-0.471 1.454-0.21 0.884 0.26l-13.091 10.971z"></path>
        </symbol>
        <symbol id="icon-github" viewBox="0 0 32 32">
            <path d="M16 0.941c-8.271 0-15.059 6.788-15.059 15.059 0 7.058 4.953 13.47 11.529 15.059v-4.982c-0.652 0.143-1.251 0.147-1.915-0.049-0.89-0.263-1.613-0.856-2.15-1.76-0.342-0.577-0.949-1.203-1.581-1.157l-0.155-1.758c1.368-0.117 2.551 0.833 3.254 2.013 0.312 0.525 0.671 0.832 1.132 0.969 0.446 0.131 0.924 0.068 1.481-0.129 0.14-1.116 0.651-1.534 1.037-2.122v-0.001c-3.922-0.585-5.486-2.666-6.106-4.308-0.822-2.181-0.381-4.905 1.073-6.627 0.028-0.034 0.079-0.121 0.060-0.183-0.667-2.014 0.146-3.679 0.176-3.856 0.769 0.228 0.894-0.229 3.342 1.258l0.423 0.254c0.177 0.105 0.121 0.045 0.298 0.032 1.022-0.278 2.099-0.431 3.16-0.445 1.069 0.014 2.14 0.167 3.204 0.456l0.137 0.014c-0.012-0.002 0.037-0.009 0.12-0.058 3.057-1.852 2.947-1.247 3.767-1.513 0.030 0.177 0.831 1.87 0.172 3.858-0.089 0.274 2.65 2.782 1.132 6.809-0.62 1.643-2.184 3.724-6.106 4.309v0.001c0.503 0.766 1.107 1.174 1.104 2.755v6.219c6.577-1.589 11.529-8.001 11.529-15.059 0-8.271-6.787-15.059-15.059-15.059v0z"></path>
        </symbol>
        <symbol id="icon-home" viewBox="0 0 35 32">
            <path  d="M32.64 15.401c0.599-0.65 0.541-1.646-0.129-2.225l-14.772-12.75c-0.671-0.578-1.745-0.566-2.402 0.027l-14.822 13.403c-0.656 0.594-0.689 1.589-0.071 2.222l0.372 0.382c0.617 0.633 1.613 0.708 2.224 0.168l1.108-0.979v14.326c0 0.879 0.722 1.591 1.612 1.591h5.778c0.89 0 1.612-0.712 1.612-1.591v-10.023h7.37v10.023c-0.013 0.878 0.624 1.59 1.515 1.59h6.123c0.89 0 1.613-0.711 1.613-1.59v-14.124c0 0 0.306 0.264 0.683 0.592s1.168 0.065 1.767-0.586l0.42-0.455z"></path>
        </symbol>
        <symbol id="icon-arrow-right" viewBox="0 0 32 32">
            <path d="M19.414 27.414l10-10c0.781-0.781 0.781-2.047 0-2.828l-10-10c-0.781-0.781-2.047-0.781-2.828 0s-0.781 2.047 0 2.828l6.586 6.586h-19.172c-1.105 0-2 0.895-2 2s0.895 2 2 2h19.172l-6.586 6.586c-0.39 0.39-0.586 0.902-0.586 1.414s0.195 1.024 0.586 1.414c0.781 0.781 2.047 0.781 2.828 0z"></path>
        </symbol>
        <symbol id="icon-menu-close" viewBox="0 0 32 32">
            <path  d="M2.519 2l26.963 28"></path>
            <path  d="M2 29.481l28-26.963"></path>
        </symbol>
        <symbol id="icon-menu" viewBox="0 0 46 32">
            <path  d="M0 2.286h45.714"></path>
            <path  d="M0 16h45.714"></path>
            <path  d="M0 29.714h45.714"></path>
        </symbol>
        <symbol id="icon-point" viewBox="0 0 139 32">
            <path  d="M85.333 16c0 8.837-7.163 16-16 16s-16-7.163-16-16c0-8.837 7.163-16 16-16s16 7.163 16 16z"></path>
            <path  d="M32 16c0 8.837-7.163 16-16 16s-16-7.163-16-16c0-8.837 7.163-16 16-16s16 7.163 16 16z"></path>
            <path  d="M138.667 16c0 8.837-7.163 16-16 16s-16-7.163-16-16c0-8.837 7.163-16 16-16s16 7.163 16 16z"></path>
        </symbol>
        <symbol id="icon-close" viewBox="0 0 32 32">
            <path d="M26.667 7.303l-1.97-1.97-7.808 7.808-7.808-7.808-1.97 1.97 7.808 7.808-7.808 7.808 1.97 1.97 7.808-7.808 7.808 7.808 1.97-1.97-7.808-7.808 7.808-7.808z"></path>
        </symbol>
    </defs>
</svg>